<?xml version="1.0" encoding="utf-8"?>
<!-- Generator: Adobe Illustrator 23.1.0, SVG Export Plug-In . SVG Version: 6.00 Build 0)  -->
<svg version="1.0" xmlns="http://www.w3.org/2000/svg" xmlns:xlink="http://www.w3.org/1999/xlink" x="0px" y="0px"
	 viewBox="0 0 34.66 9.55" enable-background="new 0 0 34.66 9.55" xml:space="preserve">
<g id="Background_xA0_Image_1_">
</g>
<g id="맞춤_신입_박혜지">
</g>
<g id="언제나_성장하는_박혜지">
</g>
<g id="함께_성장하는_박혜지">
	<g>
		<path d="M1.95,6.38C1.83,6.37,1.74,6.37,1.66,6.37c-0.08,0-0.15,0-0.22-0.02c-0.31-0.06-0.58-0.17-0.8-0.32
			C0.42,5.88,0.27,5.63,0.17,5.3C0.04,4.87-0.01,4.44,0,4.03s0.1-0.84,0.24-1.26C0.3,2.62,0.4,2.53,0.54,2.48
			c0.26-0.07,0.52-0.09,0.8-0.05C1.6,2.46,1.86,2.49,2.12,2.52c0.26,0.03,0.51,0.06,0.77,0.1C3.03,2.64,3.15,2.7,3.24,2.8
			c0.1,0.1,0.13,0.23,0.1,0.37C3.3,3.38,3.3,3.58,3.33,3.77c0.04,0.19,0.07,0.38,0.11,0.57C3.48,4.49,3.5,4.65,3.51,4.81
			c0.01,0.16,0.01,0.32,0,0.48C3.5,5.54,3.42,5.76,3.27,5.93S2.93,6.22,2.69,6.28c-0.14,0.03-0.27,0.05-0.4,0.06
			S2.05,6.36,1.95,6.38z M2.49,3.87C2.33,3.85,2.18,3.82,2.06,3.8C1.94,3.77,1.81,3.75,1.69,3.74C1.56,3.72,1.45,3.71,1.38,3.71
			S1.24,3.73,1.21,3.77S1.15,3.86,1.14,3.94c-0.01,0.08-0.01,0.19,0,0.32v0.14C1.16,4.63,1.2,4.78,1.28,4.85
			c0.08,0.07,0.23,0.12,0.45,0.13C1.82,4.99,1.9,5,1.98,4.99c0.08,0,0.16-0.01,0.25-0.03c0.1-0.02,0.18-0.06,0.24-0.14
			s0.09-0.17,0.08-0.28C2.55,4.43,2.54,4.32,2.53,4.21C2.52,4.1,2.5,3.99,2.49,3.87z M3.62,7.22c0-0.02,0-0.05,0-0.1
			c0-0.05,0.01-0.11,0.02-0.17c0.03-0.16,0.1-0.29,0.22-0.39C3.97,6.45,4.1,6.4,4.26,6.39c0.16-0.02,0.32,0.02,0.47,0.1
			C4.89,6.57,5,6.67,5.07,6.8C5.1,6.86,5.12,6.93,5.14,7.01C5.15,7.08,5.17,7.16,5.2,7.23c0.09,0.26,0.22,0.45,0.38,0.56
			c0.17,0.11,0.43,0.18,0.78,0.22C6.5,8.03,6.64,8.03,6.78,8.03c0.14,0,0.28,0.01,0.41,0.02c0.34,0.05,0.52,0.22,0.52,0.52
			c0.01,0.26-0.06,0.45-0.2,0.59C7.36,9.31,7.13,9.41,6.82,9.46C6.38,9.53,5.93,9.5,5.46,9.37C4.86,9.18,4.41,8.92,4.1,8.57
			C3.79,8.23,3.63,7.78,3.62,7.22z M8.38,3.4C8.41,3.85,8.4,4.29,8.34,4.71c-0.06,0.42-0.1,0.85-0.13,1.28
			C8.19,6.15,8.14,6.31,8.05,6.47C7.9,6.78,7.66,6.91,7.33,6.86C7.15,6.83,7,6.75,6.87,6.64S6.67,6.37,6.64,6.2
			c-0.01-0.05-0.01-0.12,0-0.2c0.01-0.09,0.01-0.18,0.01-0.27S6.64,5.55,6.63,5.47S6.57,5.34,6.52,5.31
			C6.44,5.27,6.3,5.25,6.12,5.26c-0.19,0-0.35-0.01-0.5-0.03c-0.1-0.02-0.2-0.05-0.28-0.11c-0.08-0.06-0.15-0.12-0.22-0.2
			C5.07,4.84,5.03,4.77,5,4.7C4.97,4.63,4.98,4.54,5.02,4.45c0.05-0.11,0.11-0.2,0.18-0.27c0.07-0.07,0.17-0.1,0.29-0.1
			c0.05,0,0.1,0.01,0.14,0.02c0.05,0.01,0.1,0.02,0.14,0.02C5.89,4.12,5.97,4.12,6,4.13s0.11,0,0.23-0.01
			c0.15,0.01,0.27,0,0.34-0.01C6.65,4.09,6.7,4.06,6.72,4c0.02-0.06,0.04-0.13,0.04-0.22c0-0.09,0.01-0.21,0.02-0.35
			c0-0.06-0.02-0.1-0.05-0.14C6.69,3.25,6.65,3.24,6.59,3.25c-0.06,0-0.11,0-0.14,0.01C6.41,3.27,6.38,3.27,6.36,3.28
			S6.3,3.29,6.27,3.29C6.23,3.3,6.19,3.31,6.14,3.32C5.98,3.33,5.84,3.33,5.7,3.3C5.56,3.27,5.43,3.21,5.31,3.11
			c-0.11-0.1-0.18-0.2-0.22-0.3C5.03,2.69,5.04,2.56,5.11,2.42C5.19,2.29,5.29,2.22,5.43,2.2c0.11-0.01,0.21-0.02,0.3-0.02
			C5.81,2.17,5.9,2.16,5.98,2.16c0.08,0,0.16-0.01,0.25-0.01s0.19-0.01,0.31-0.02C6.68,2.12,6.76,2.1,6.8,2.06
			c0.04-0.04,0.04-0.14,0.02-0.29C6.8,1.7,6.79,1.64,6.79,1.6c0-0.04-0.01-0.08-0.01-0.11S6.76,1.41,6.74,1.37
			c-0.02-0.04-0.05-0.1-0.08-0.17C6.61,1.1,6.57,0.99,6.55,0.86C6.54,0.72,6.58,0.6,6.69,0.5c0.11-0.1,0.23-0.15,0.38-0.13
			c0.32,0.05,0.59,0.2,0.8,0.47c0.1,0.12,0.17,0.23,0.23,0.33c0.06,0.1,0.11,0.2,0.14,0.3c0.04,0.1,0.06,0.21,0.08,0.32
			C8.35,1.9,8.36,2.03,8.38,2.18C8.39,2.39,8.4,2.59,8.39,2.8C8.38,3,8.38,3.2,8.38,3.4z"/>
		<path d="M12.17,5.55c-0.18,0.03-0.36,0.03-0.56-0.01c-0.2-0.04-0.38-0.11-0.53-0.21c-0.07-0.05-0.12-0.08-0.15-0.1
			c-0.03-0.02-0.05-0.04-0.07-0.05c-0.02-0.01-0.03-0.02-0.05-0.04s-0.05-0.03-0.1-0.05c-0.06-0.04-0.13-0.05-0.22-0.03
			c-0.09,0.02-0.17,0.05-0.23,0.09c-0.22,0.13-0.42,0.24-0.62,0.32C9.51,5.52,9.4,5.54,9.28,5.54c-0.12,0-0.23-0.03-0.34-0.09
			c-0.14-0.08-0.24-0.17-0.3-0.27c-0.06-0.1-0.09-0.2-0.09-0.29c0-0.09,0.04-0.18,0.1-0.26c0.06-0.08,0.15-0.15,0.26-0.21
			C9.13,4.3,9.33,4.16,9.51,4c0.18-0.16,0.35-0.33,0.52-0.5c0.09-0.09,0.16-0.18,0.23-0.29c0.06-0.1,0.11-0.21,0.14-0.32
			c0.04-0.12-0.01-0.19-0.14-0.22c-0.06-0.02-0.13-0.02-0.19-0.02s-0.13,0-0.19-0.01C9.75,2.63,9.65,2.6,9.56,2.56
			s-0.17-0.1-0.25-0.16C9.11,2.22,9.04,2.05,9.08,1.9c0.04-0.15,0.2-0.27,0.47-0.35c0.26-0.07,0.5-0.1,0.74-0.08
			c0.24,0.02,0.46,0.07,0.65,0.16c0.2,0.09,0.37,0.22,0.51,0.38s0.25,0.36,0.31,0.58c0.02,0.1,0.04,0.18,0.04,0.25
			s-0.01,0.14-0.02,0.2c-0.02,0.06-0.04,0.12-0.07,0.19c-0.03,0.07-0.07,0.15-0.11,0.25c-0.03,0.07-0.07,0.13-0.13,0.18
			c-0.05,0.05-0.07,0.1-0.05,0.16c0.01,0.07,0.03,0.12,0.07,0.16c0.04,0.03,0.08,0.07,0.13,0.11c0.1,0.05,0.21,0.09,0.32,0.12
			c0.11,0.03,0.22,0.07,0.34,0.11c0.4,0.11,0.58,0.33,0.53,0.65c-0.02,0.09-0.04,0.16-0.07,0.22c-0.03,0.06-0.07,0.11-0.12,0.16
			c-0.05,0.04-0.11,0.08-0.19,0.11C12.36,5.49,12.27,5.52,12.17,5.55z M12.25,6.83c0.02-0.14,0.05-0.28,0.07-0.43
			c0.02-0.15,0.05-0.31,0.08-0.47c0.05-0.22,0.18-0.34,0.38-0.38c0.11-0.02,0.21-0.01,0.29,0.03c0.08,0.04,0.15,0.11,0.22,0.2
			c0.05,0.07,0.09,0.14,0.14,0.22c0.04,0.07,0.08,0.15,0.11,0.23c0.04,0.11,0.1,0.19,0.17,0.23s0.17,0.07,0.27,0.07
			c0.07,0.01,0.14,0.01,0.22,0.01c0.07,0,0.15-0.01,0.23-0.02c0.17-0.02,0.26-0.1,0.29-0.26c0.02-0.06,0.03-0.12,0.04-0.18
			c0.01-0.06,0.02-0.12,0.04-0.18c0.05-0.13,0.15-0.18,0.3-0.16c0.14,0.03,0.25,0.09,0.35,0.16s0.18,0.19,0.23,0.33
			c0.06,0.18,0.1,0.37,0.12,0.57c0.02,0.2,0.01,0.39-0.02,0.58c-0.04,0.27-0.1,0.53-0.18,0.79c-0.08,0.25-0.16,0.51-0.25,0.76
			c-0.13,0.37-0.4,0.57-0.83,0.61c-0.28,0.03-0.54,0.01-0.79-0.06s-0.47-0.18-0.66-0.34c-0.19-0.15-0.35-0.34-0.47-0.56
			c-0.12-0.22-0.2-0.47-0.23-0.74c-0.02-0.16-0.03-0.32-0.05-0.48C12.3,7.19,12.28,7.02,12.25,6.83z M16.62,3.17
			c0.02,0.22,0.02,0.43,0,0.65c-0.02,0.22-0.03,0.43-0.04,0.65c-0.02,0.16-0.04,0.31-0.08,0.46c-0.04,0.15-0.09,0.29-0.16,0.44
			c-0.09,0.18-0.23,0.3-0.41,0.34s-0.36,0.01-0.52-0.1c-0.18-0.13-0.32-0.28-0.42-0.46c-0.1-0.18-0.14-0.38-0.12-0.62
			c0.01-0.07,0.01-0.14,0.01-0.21c0-0.07,0-0.14,0-0.21c0-0.12-0.02-0.2-0.06-0.25s-0.11-0.07-0.22-0.06
			c-0.08,0.01-0.14,0.01-0.19,0.01c-0.05,0-0.09,0-0.13-0.01c-0.04-0.01-0.08-0.02-0.12-0.03s-0.11-0.03-0.19-0.04
			c-0.27-0.06-0.48-0.22-0.62-0.47c-0.11-0.21-0.13-0.4-0.05-0.58c0.08-0.18,0.22-0.28,0.43-0.29c0.1-0.01,0.19-0.01,0.26-0.01
			c0.07,0,0.14,0,0.21,0c0.07,0,0.14,0,0.2,0c0.07,0,0.15,0,0.26-0.01c0.12-0.01,0.2-0.04,0.25-0.1C14.97,2.2,14.99,2.1,15,1.96
			c0.01-0.18,0-0.35-0.02-0.51c-0.02-0.16-0.08-0.32-0.17-0.47c-0.08-0.13-0.13-0.26-0.15-0.39s0.03-0.27,0.14-0.4
			C14.9,0.07,15.01,0,15.12,0c0.11,0,0.26,0.05,0.46,0.16c0.36,0.2,0.62,0.46,0.77,0.79c0.15,0.33,0.24,0.7,0.28,1.1
			c0.02,0.18,0.02,0.37,0.01,0.56C16.63,2.8,16.62,2.99,16.62,3.17z M14.11,7.59c-0.02,0-0.05,0-0.08,0c-0.03,0-0.07,0-0.11,0.01
			c-0.04,0.01-0.08,0.02-0.11,0.04c-0.03,0.02-0.05,0.05-0.05,0.09c0,0.07,0.02,0.14,0.06,0.19c0.2,0.18,0.4,0.21,0.59,0.1
			c0.06-0.03,0.1-0.07,0.14-0.11s0.05-0.1,0.03-0.17c-0.02-0.06-0.05-0.1-0.1-0.11c-0.05-0.01-0.09-0.02-0.13-0.02
			s-0.08-0.01-0.11-0.01S14.16,7.59,14.11,7.59z"/>
		<path d="M20.41,7.36c-0.18,0.03-0.37,0.03-0.57-0.01s-0.38-0.11-0.53-0.21c-0.06-0.05-0.11-0.08-0.14-0.1
			C19.14,7.02,19.12,7.01,19.1,7c-0.02-0.01-0.04-0.03-0.06-0.04c-0.02-0.02-0.05-0.04-0.1-0.06c-0.06-0.04-0.13-0.05-0.22-0.02
			c-0.09,0.02-0.17,0.06-0.23,0.1c-0.1,0.06-0.21,0.11-0.31,0.17c-0.1,0.06-0.21,0.1-0.32,0.14c-0.11,0.05-0.23,0.07-0.34,0.08
			c-0.12,0-0.23-0.03-0.34-0.09C17.04,7.19,16.94,7.1,16.87,7c-0.06-0.1-0.09-0.2-0.09-0.29c0-0.09,0.04-0.18,0.1-0.26
			c0.06-0.08,0.15-0.16,0.26-0.22c0.22-0.11,0.42-0.25,0.6-0.41c0.18-0.16,0.35-0.33,0.52-0.51c0.09-0.09,0.16-0.18,0.23-0.29
			c0.06-0.1,0.11-0.22,0.14-0.34c0.04-0.11-0.01-0.18-0.14-0.2c-0.12-0.02-0.25-0.04-0.38-0.04c-0.11-0.01-0.21-0.03-0.31-0.08
			s-0.18-0.1-0.26-0.16c-0.2-0.18-0.28-0.34-0.23-0.49c0.05-0.15,0.21-0.27,0.48-0.35c0.26-0.07,0.5-0.1,0.74-0.08
			c0.24,0.02,0.46,0.07,0.66,0.16c0.2,0.09,0.37,0.22,0.52,0.38s0.25,0.36,0.31,0.58c0.02,0.1,0.04,0.18,0.04,0.25
			s-0.01,0.14-0.02,0.2c-0.02,0.06-0.04,0.12-0.07,0.19c-0.03,0.07-0.07,0.15-0.11,0.25c-0.04,0.08-0.08,0.14-0.13,0.19
			c-0.05,0.04-0.07,0.09-0.06,0.15c0.02,0.07,0.04,0.13,0.08,0.16c0.04,0.04,0.08,0.07,0.13,0.1c0.11,0.05,0.22,0.09,0.34,0.12
			c0.11,0.03,0.22,0.07,0.34,0.11c0.4,0.13,0.58,0.35,0.53,0.66C21.05,6.86,21.02,6.94,20.99,7c-0.03,0.06-0.07,0.11-0.12,0.16
			s-0.11,0.08-0.19,0.11S20.52,7.33,20.41,7.36z M23.73,5.42c0.02,0.18,0.02,0.37,0.01,0.55c-0.01,0.18-0.03,0.37-0.04,0.55
			c-0.01,0.14-0.03,0.27-0.07,0.4c-0.04,0.13-0.08,0.25-0.14,0.37c-0.08,0.16-0.2,0.26-0.37,0.3c-0.17,0.04-0.32,0.01-0.47-0.1
			c-0.16-0.11-0.28-0.24-0.37-0.38c-0.08-0.14-0.12-0.32-0.1-0.53c0-0.06,0-0.13,0.01-0.19c0-0.06,0.01-0.12,0.01-0.19
			c-0.01-0.19-0.09-0.28-0.25-0.25c-0.07,0-0.13,0-0.16,0c-0.04,0-0.07,0-0.11-0.01c-0.04,0-0.07-0.01-0.11-0.02
			S21.47,5.9,21.4,5.89c-0.25-0.05-0.43-0.18-0.55-0.4c-0.1-0.18-0.11-0.34-0.04-0.49c0.07-0.15,0.2-0.24,0.38-0.25
			c0.09-0.01,0.16-0.01,0.23-0.01c0.06,0,0.12,0,0.18,0s0.12,0,0.18,0s0.14,0,0.23-0.01c0.1-0.01,0.17-0.04,0.21-0.09
			s0.06-0.13,0.07-0.25c0.02-0.15,0.01-0.3-0.01-0.43c-0.02-0.14-0.07-0.27-0.16-0.41c-0.06-0.11-0.1-0.22-0.12-0.34
			c-0.02-0.11,0.02-0.22,0.12-0.34c0.09-0.1,0.18-0.16,0.28-0.16c0.1,0,0.24,0.04,0.41,0.13c0.31,0.17,0.53,0.39,0.67,0.67
			s0.22,0.6,0.25,0.95c0.01,0.16,0.01,0.32,0.01,0.47S23.73,5.26,23.73,5.42z M24.28,4.47c-0.01-0.26-0.03-0.51-0.08-0.76
			s-0.15-0.48-0.32-0.7c-0.05-0.06-0.09-0.15-0.12-0.26c-0.04-0.12-0.03-0.23,0.02-0.34c0.06-0.1,0.15-0.17,0.27-0.2
			c0.22-0.05,0.44-0.03,0.64,0.06c0.37,0.18,0.65,0.46,0.82,0.85c0.24,0.58,0.35,1.17,0.35,1.78c-0.01,0.4-0.02,0.8-0.05,1.19
			c-0.02,0.39-0.05,0.79-0.07,1.19c-0.02,0.14-0.05,0.28-0.1,0.4C25.6,7.8,25.5,7.9,25.35,7.97c-0.12,0.06-0.25,0.09-0.38,0.07
			c-0.13-0.02-0.25-0.06-0.37-0.13c-0.11-0.07-0.21-0.16-0.28-0.27c-0.08-0.11-0.12-0.24-0.13-0.38c-0.01-0.24,0-0.48,0.01-0.73
			s0.03-0.49,0.04-0.74c0.01-0.18,0.02-0.34,0.02-0.5c0.01-0.14,0.01-0.28,0.01-0.43C24.28,4.71,24.28,4.58,24.28,4.47z"/>
		<path d="M28.85,4.48c0,0.33-0.05,0.62-0.16,0.86c-0.1,0.25-0.29,0.46-0.56,0.62c-0.46,0.27-0.9,0.26-1.31-0.02
			c-0.25-0.18-0.44-0.4-0.59-0.65c-0.14-0.25-0.21-0.53-0.19-0.85c0.01-0.25,0.06-0.47,0.17-0.67s0.24-0.39,0.4-0.58
			c0.03-0.04,0.07-0.07,0.11-0.1s0.08-0.06,0.11-0.1c0.19-0.2,0.39-0.32,0.59-0.37c0.2-0.04,0.39-0.03,0.56,0.04
			c0.17,0.07,0.33,0.19,0.46,0.35c0.14,0.16,0.23,0.35,0.29,0.55c0.05,0.16,0.08,0.32,0.1,0.47C28.83,4.2,28.84,4.35,28.85,4.48z
			 M27.88,3.44c-0.25,0.18-0.42,0.38-0.52,0.61c-0.1,0.23-0.14,0.49-0.13,0.77c0.01,0.06,0.05,0.1,0.11,0.13
			c0.07,0.03,0.13,0.04,0.17,0.02c0.11-0.04,0.2-0.1,0.28-0.18c0.07-0.08,0.13-0.17,0.17-0.28C28.11,4.14,28.09,3.78,27.88,3.44z
			 M29.08,6.75c0-0.02,0-0.05-0.01-0.1c0-0.05,0-0.11,0.02-0.17c0.03-0.16,0.11-0.29,0.22-0.39c0.12-0.1,0.25-0.16,0.4-0.17
			c0.16-0.01,0.32,0.03,0.47,0.11c0.16,0.08,0.27,0.18,0.33,0.31c0.04,0.06,0.07,0.13,0.08,0.21c0.01,0.08,0.03,0.15,0.05,0.21
			c0.09,0.27,0.22,0.46,0.38,0.57c0.17,0.11,0.43,0.18,0.78,0.21c0.14,0.02,0.27,0.03,0.41,0.03s0.28,0.01,0.41,0.03
			c0.34,0.05,0.52,0.22,0.52,0.52c0.01,0.25-0.06,0.44-0.2,0.58s-0.37,0.24-0.68,0.31c-0.45,0.07-0.9,0.04-1.34-0.1
			c-0.61-0.18-1.06-0.45-1.37-0.79C29.25,7.76,29.09,7.31,29.08,6.75z M31.32,3.95c0.03-0.38,0.04-0.72,0.04-1
			c-0.01-0.28-0.03-0.57-0.07-0.85c-0.02-0.19-0.06-0.38-0.12-0.55s-0.15-0.34-0.29-0.49C30.81,1,30.76,0.92,30.72,0.82
			c-0.04-0.09-0.05-0.18-0.04-0.27c0.01-0.09,0.04-0.17,0.09-0.24c0.05-0.07,0.11-0.12,0.2-0.16s0.17-0.06,0.27-0.05
			c0.21,0.02,0.39,0.08,0.55,0.19c0.21,0.14,0.39,0.29,0.55,0.47c0.16,0.18,0.27,0.38,0.35,0.62c0.06,0.18,0.12,0.39,0.16,0.62
			c0.02,0.18,0.05,0.31,0.08,0.39c0.03,0.08,0.07,0.12,0.13,0.14c0.06,0.02,0.13,0.01,0.23-0.01c0.1-0.02,0.22-0.04,0.38-0.05
			c0.09-0.01,0.17-0.01,0.26-0.01s0.17,0.01,0.26,0.02c0.16,0.02,0.27,0.06,0.34,0.13c0.07,0.07,0.11,0.18,0.13,0.32
			c0.02,0.2,0,0.36-0.07,0.49s-0.19,0.24-0.37,0.34c-0.14,0.08-0.28,0.14-0.44,0.18c-0.16,0.04-0.31,0.08-0.46,0.12
			c-0.19,0.04-0.3,0.15-0.32,0.34c0,0.06,0,0.11-0.01,0.14s-0.01,0.05-0.01,0.08c0,0.02-0.01,0.05-0.01,0.08
			c0,0.03-0.01,0.07-0.01,0.14c-0.01,0.07-0.01,0.14,0.01,0.22c0.01,0.07,0.01,0.14,0.01,0.2c-0.02,0.12-0.06,0.23-0.12,0.32
			c-0.06,0.09-0.14,0.16-0.23,0.21c-0.09,0.05-0.19,0.07-0.3,0.07s-0.21-0.04-0.32-0.1c-0.17-0.11-0.31-0.24-0.42-0.38
			c-0.11-0.14-0.18-0.32-0.2-0.53c-0.02-0.14-0.03-0.24-0.04-0.32s-0.02-0.15-0.02-0.2c0-0.05,0-0.1,0-0.16
			C31.31,4.11,31.31,4.04,31.32,3.95z"/>
	</g>
</g>
</svg>
