<?xml version="1.0" encoding="utf-8"?>
<!-- Generator: Adobe Illustrator 23.1.0, SVG Export Plug-In . SVG Version: 6.00 Build 0)  -->
<svg version="1.0" xmlns="http://www.w3.org/2000/svg" xmlns:xlink="http://www.w3.org/1999/xlink" x="0px" y="0px"
	 viewBox="0 0 35.48 6.55" enable-background="new 0 0 35.48 6.55" xml:space="preserve">
<g id="Background_xA0_Image_1_">
</g>
<g id="맞춤_신입_박혜지">
</g>
<g id="언제나_성장하는_박혜지">
</g>
<g id="함께_성장하는_박혜지">
	<g>
		<path d="M0,2.39c0-0.02,0-0.07,0-0.13c0-0.06,0.01-0.13,0.02-0.2c0.02-0.18,0.09-0.34,0.2-0.46C0.33,1.48,0.46,1.42,0.6,1.41
			c0.15-0.02,0.3,0.02,0.44,0.11c0.14,0.09,0.25,0.21,0.31,0.37c0.03,0.09,0.05,0.17,0.07,0.25c0.01,0.08,0.03,0.16,0.05,0.25
			c0.09,0.31,0.21,0.53,0.37,0.67C2,3.19,2.24,3.27,2.57,3.31C2.7,3.32,2.82,3.33,2.95,3.34s0.26,0.01,0.38,0.03
			c0.33,0.07,0.49,0.28,0.49,0.61C3.84,4.55,3.56,4.89,3,5.02C2.78,5.07,2.57,5.08,2.36,5.06C2.15,5.04,1.94,4.99,1.73,4.91
			C1.16,4.7,0.73,4.39,0.45,3.98C0.17,3.57,0.02,3.04,0,2.39z M5.21,3.95c0.03-0.38,0.04-0.72,0.04-1.02S5.21,2.35,5.17,2.07
			c-0.02-0.21-0.06-0.4-0.12-0.58C5,1.32,4.9,1.15,4.76,0.99C4.7,0.93,4.65,0.85,4.61,0.75c-0.04-0.1-0.05-0.19-0.04-0.28
			c0.01-0.09,0.04-0.17,0.09-0.24C4.7,0.16,4.77,0.1,4.85,0.06S5.03,0,5.14,0.01C5.33,0.02,5.51,0.09,5.68,0.2
			C5.88,0.34,6.07,0.5,6.23,0.68C6.39,0.86,6.5,1.08,6.58,1.33c0.04,0.1,0.07,0.21,0.1,0.31c0.02,0.1,0.04,0.21,0.06,0.32
			C6.76,2.15,6.78,2.3,6.81,2.4c0.03,0.1,0.07,0.17,0.13,0.22s0.13,0.06,0.23,0.06c0.1,0,0.23-0.01,0.4-0.03
			c0.15-0.01,0.32,0,0.5,0.02C8.22,2.69,8.34,2.73,8.41,2.8c0.07,0.07,0.11,0.18,0.13,0.33c0.02,0.21,0,0.38-0.06,0.51
			C8.41,3.77,8.28,3.88,8.1,3.98C7.96,4.06,7.82,4.12,7.66,4.16C7.51,4.2,7.35,4.24,7.2,4.28C7,4.33,6.9,4.44,6.89,4.63
			C6.87,4.76,6.86,4.9,6.86,5.03c0,0.13-0.01,0.27-0.02,0.4C6.83,5.5,6.83,5.58,6.85,5.65S6.86,5.8,6.85,5.87
			C6.84,5.99,6.8,6.1,6.73,6.19C6.67,6.28,6.59,6.35,6.5,6.4S6.31,6.47,6.2,6.47c-0.11,0-0.21-0.04-0.32-0.1
			C5.71,6.25,5.57,6.13,5.46,5.98c-0.11-0.14-0.18-0.33-0.2-0.55C5.22,5.15,5.2,4.88,5.2,4.62C5.19,4.36,5.19,4.14,5.21,3.95z"/>
		<path d="M11.39,6.11c-0.32-0.02-0.63-0.04-0.94-0.08c-0.31-0.04-0.61-0.12-0.92-0.25C9.17,5.62,8.92,5.34,8.77,4.95
			C8.69,4.73,8.7,4.54,8.8,4.39c0.1-0.15,0.25-0.22,0.44-0.19C9.28,4.2,9.32,4.21,9.37,4.22c0.04,0.01,0.09,0.02,0.13,0.04
			c0.3,0.14,0.62,0.22,0.94,0.26c0.32,0.04,0.65,0.06,0.98,0.06c0.26,0,0.51,0,0.76,0.01s0.5-0.03,0.74-0.09
			c0.22-0.05,0.39,0,0.52,0.15c0.13,0.15,0.21,0.35,0.22,0.61c0.02,0.24-0.07,0.42-0.25,0.55c-0.11,0.08-0.23,0.14-0.34,0.19
			c-0.12,0.04-0.24,0.08-0.37,0.1c-0.22,0.04-0.43,0.06-0.65,0.07C11.82,6.17,11.6,6.15,11.39,6.11z M12.6,2.38
			C12.59,2.71,12.54,3,12.44,3.25s-0.29,0.46-0.56,0.62c-0.22,0.14-0.45,0.2-0.67,0.2s-0.44-0.08-0.64-0.22
			c-0.25-0.18-0.44-0.4-0.59-0.65C9.84,2.95,9.78,2.67,9.79,2.35C9.8,2.1,9.86,1.87,9.96,1.67c0.1-0.2,0.24-0.39,0.4-0.58
			c0.03-0.04,0.07-0.07,0.1-0.1c0.04-0.02,0.07-0.06,0.11-0.1c0.19-0.2,0.39-0.32,0.59-0.37c0.2-0.04,0.39-0.03,0.56,0.04
			c0.17,0.07,0.33,0.19,0.46,0.35c0.14,0.16,0.23,0.35,0.29,0.55c0.05,0.16,0.08,0.32,0.1,0.47S12.59,2.25,12.6,2.38z M11.62,1.34
			c-0.25,0.18-0.42,0.38-0.52,0.61c-0.1,0.23-0.14,0.49-0.12,0.77c0.01,0.06,0.05,0.1,0.11,0.13c0.07,0.03,0.13,0.04,0.17,0.02
			c0.21-0.08,0.36-0.23,0.44-0.46c0.07-0.18,0.1-0.36,0.09-0.54C11.79,1.7,11.73,1.52,11.62,1.34z M14.42,1.99
			c-0.01-0.16-0.04-0.31-0.08-0.46c-0.05-0.14-0.18-0.27-0.38-0.38c-0.09-0.04-0.15-0.1-0.19-0.18c-0.04-0.08-0.07-0.16-0.1-0.24
			c-0.04-0.11-0.01-0.21,0.08-0.31c0.1-0.09,0.22-0.14,0.38-0.14c0.2-0.01,0.38,0.01,0.55,0.05s0.33,0.11,0.49,0.22
			c0.3,0.21,0.54,0.44,0.7,0.69s0.27,0.53,0.32,0.82c0.12,0.78,0.14,1.55,0.07,2.32c-0.02,0.21-0.03,0.41-0.04,0.61
			c-0.01,0.2-0.06,0.39-0.14,0.58C16,5.77,15.82,5.9,15.54,5.96c-0.12,0.02-0.24,0.03-0.37,0.01c-0.12-0.02-0.24-0.05-0.34-0.1
			c-0.1-0.05-0.19-0.11-0.26-0.18c-0.07-0.07-0.12-0.15-0.14-0.24c-0.02-0.06-0.02-0.13-0.02-0.2s0-0.14,0-0.22V3.55
			c0.01-0.19,0.01-0.38,0.01-0.58V1.99z"/>
		<path d="M22.97,4.95c0.05-0.03,0.06-0.12,0.05-0.25C23,4.56,23.02,4.4,23.09,4.21c0.1-0.32,0.26-0.48,0.48-0.48
			c0.29,0,0.48,0.16,0.59,0.47c0.03,0.06,0.06,0.15,0.07,0.26s0.03,0.2,0.04,0.27c0,0.05,0,0.09,0.01,0.12
			c0.01,0.03,0.03,0.06,0.07,0.08c0.04,0.02,0.1,0.03,0.18,0.04s0.2,0.01,0.34,0.01c0.24,0,0.48-0.01,0.72-0.04
			c0.07-0.01,0.14-0.01,0.22-0.02c0.07,0,0.14-0.01,0.2-0.02c0.16-0.02,0.3,0.01,0.42,0.07c0.12,0.06,0.22,0.15,0.31,0.26
			c0.06,0.08,0.11,0.17,0.13,0.28S26.9,5.7,26.88,5.8c-0.02,0.1-0.05,0.19-0.11,0.28s-0.13,0.15-0.23,0.2
			c-0.08,0.03-0.16,0.06-0.23,0.08c-0.08,0.02-0.16,0.04-0.25,0.05c-0.49,0.09-0.98,0.14-1.47,0.14c-0.49,0.01-0.99-0.01-1.48-0.05
			c-0.18-0.02-0.38-0.05-0.58-0.09c-0.2-0.04-0.4-0.1-0.59-0.16c-0.2-0.06-0.38-0.14-0.56-0.22c-0.18-0.08-0.34-0.18-0.49-0.28
			c-0.05-0.03-0.09-0.08-0.13-0.16s-0.06-0.15-0.08-0.23s-0.03-0.16-0.04-0.24c-0.01-0.08-0.01-0.15-0.01-0.2
			c0.02-0.16,0.08-0.28,0.2-0.35c0.12-0.07,0.27-0.09,0.45-0.05c0.06,0.02,0.13,0.04,0.19,0.07c0.06,0.03,0.13,0.05,0.19,0.08
			c0.08,0.03,0.16,0.07,0.23,0.1c0.07,0.04,0.15,0.06,0.24,0.08c0.05,0.02,0.11,0.03,0.2,0.05c0.08,0.02,0.17,0.03,0.26,0.05
			c0.09,0.02,0.17,0.03,0.24,0.03C22.9,4.97,22.94,4.97,22.97,4.95z M24.16,0.99c-0.02,0.1-0.03,0.19-0.04,0.29
			c-0.01,0.1-0.03,0.21-0.04,0.32c-0.02,0.17,0.04,0.29,0.19,0.36c0.1,0.06,0.21,0.11,0.32,0.14c0.11,0.03,0.22,0.05,0.34,0.07
			c0.13,0.02,0.25,0.03,0.38,0.05c0.12,0.02,0.25,0.05,0.38,0.08c0.13,0.02,0.22,0.1,0.27,0.23C26,2.66,26,2.79,25.93,2.9
			c-0.15,0.25-0.36,0.41-0.64,0.48c-0.42,0.11-0.81,0.08-1.18-0.11c-0.05-0.02-0.09-0.04-0.14-0.07s-0.09-0.05-0.14-0.08
			c-0.09-0.04-0.16-0.07-0.2-0.1C23.59,3.01,23.55,3,23.51,3s-0.08,0.02-0.12,0.05c-0.04,0.03-0.09,0.08-0.14,0.14
			c-0.15,0.18-0.32,0.3-0.52,0.37s-0.39,0.13-0.6,0.18c-0.1,0.02-0.21,0.02-0.32-0.01s-0.21-0.08-0.3-0.15
			c-0.09-0.07-0.17-0.15-0.23-0.24c-0.06-0.09-0.11-0.19-0.13-0.28c-0.02-0.09-0.01-0.17,0.02-0.25c0.03-0.08,0.09-0.14,0.17-0.18
			c0.05-0.03,0.08-0.05,0.11-0.06c0.22-0.05,0.4-0.13,0.55-0.23c0.15-0.11,0.29-0.23,0.4-0.37c0.12-0.14,0.22-0.29,0.31-0.46
			c0.09-0.17,0.17-0.34,0.24-0.53c0.04-0.1,0.07-0.2,0.09-0.3c0.02-0.1,0.05-0.2,0.09-0.3c0.03-0.1,0.08-0.18,0.13-0.25
			c0.06-0.07,0.14-0.11,0.25-0.12c0.1-0.02,0.19,0,0.27,0.05c0.08,0.05,0.15,0.11,0.21,0.19c0.09,0.11,0.14,0.23,0.15,0.35
			C24.15,0.72,24.16,0.85,24.16,0.99z"/>
		<path d="M28.12,2.02c0.26,0.01,0.48,0.03,0.66,0.07s0.34,0.11,0.48,0.2s0.25,0.21,0.35,0.37S29.8,3,29.89,3.22
			c0.07,0.18,0.11,0.36,0.13,0.53c0.01,0.17-0.03,0.35-0.11,0.53c-0.11,0.27-0.24,0.53-0.39,0.78c-0.15,0.25-0.35,0.46-0.61,0.64
			c-0.1,0.07-0.22,0.12-0.36,0.14c-0.14,0.02-0.27,0.03-0.4,0.01c-0.13-0.02-0.26-0.06-0.38-0.13c-0.12-0.06-0.22-0.15-0.3-0.25
			C27.4,5.4,27.38,5.31,27.42,5.2c0.03-0.1,0.07-0.18,0.12-0.26s0.12-0.15,0.2-0.22c0.1-0.08,0.18-0.17,0.26-0.26
			c0.08-0.09,0.15-0.19,0.22-0.29c0.04-0.07,0.08-0.15,0.11-0.23s0.06-0.16,0.08-0.25c0.02-0.13,0.01-0.22-0.03-0.28
			c-0.04-0.06-0.11-0.11-0.23-0.15c-0.11-0.04-0.22-0.07-0.32-0.1c-0.1-0.02-0.21-0.06-0.31-0.1c-0.12-0.05-0.23-0.11-0.32-0.18
			c-0.11-0.09-0.16-0.2-0.14-0.35s0.09-0.25,0.22-0.32c0.14-0.09,0.29-0.14,0.44-0.16C27.85,2.03,27.99,2.02,28.12,2.02z M33.8,2.69
			c-0.02-0.21-0.03-0.41-0.05-0.61s-0.05-0.39-0.11-0.58c-0.03-0.1-0.07-0.2-0.13-0.28c-0.05-0.08-0.1-0.17-0.15-0.26
			c-0.09-0.16-0.11-0.31-0.08-0.46c0.04-0.15,0.13-0.27,0.28-0.35c0.06-0.02,0.11-0.03,0.16-0.02c0.04,0.01,0.07,0.02,0.1,0.02
			c0.03,0.01,0.06,0.01,0.1,0.01c0.26-0.02,0.48,0.06,0.64,0.22c0.16,0.16,0.31,0.35,0.45,0.58c0.1,0.18,0.17,0.36,0.21,0.56
			c0.04,0.2,0.08,0.39,0.11,0.58c0.14,0.89,0.17,1.78,0.07,2.66c-0.02,0.14-0.03,0.27-0.05,0.4c-0.02,0.13-0.07,0.25-0.16,0.36
			c-0.13,0.16-0.28,0.26-0.47,0.3s-0.36,0-0.52-0.12c-0.07-0.05-0.14-0.11-0.2-0.18c-0.06-0.07-0.12-0.14-0.19-0.2
			c-0.05-0.05-0.07-0.1-0.07-0.16c0-0.06,0-0.12,0.01-0.19c0.03-0.21,0.04-0.44,0.01-0.7c-0.01-0.03-0.01-0.06-0.02-0.09
			c0-0.03-0.03-0.05-0.07-0.05c-0.1-0.02-0.19-0.02-0.29-0.01c-0.1,0.01-0.2,0.03-0.29,0.04c-0.04,0.02-0.06,0.04-0.06,0.08
			s0,0.07,0,0.11c-0.01,0.13-0.01,0.25-0.02,0.37c0,0.12-0.01,0.24-0.03,0.36c-0.02,0.17-0.08,0.31-0.17,0.42
			c-0.09,0.11-0.21,0.19-0.37,0.23C32.28,5.78,32.12,5.75,32,5.65c-0.16-0.14-0.29-0.31-0.39-0.49s-0.14-0.39-0.11-0.64
			c0.02-0.34,0.03-0.68,0.02-1.02s-0.03-0.68-0.06-1.02c-0.02-0.15-0.04-0.29-0.08-0.43c-0.04-0.13-0.11-0.25-0.22-0.37
			c-0.14-0.16-0.2-0.29-0.19-0.4c0.01-0.1,0.08-0.23,0.22-0.38c0.05-0.06,0.11-0.1,0.19-0.11c0.7-0.01,1.17,0.36,1.4,1.09
			c0.03,0.1,0.06,0.21,0.09,0.31c0.03,0.1,0.05,0.21,0.05,0.32c0.01,0.14,0.08,0.2,0.2,0.18c0.1-0.01,0.21-0.01,0.32-0.01
			C33.56,2.69,33.68,2.69,33.8,2.69z"/>
	</g>
</g>
</svg>
