<?xml version="1.0" encoding="utf-8"?>
<!-- Generator: Adobe Illustrator 23.1.0, SVG Export Plug-In . SVG Version: 6.00 Build 0)  -->
<svg version="1.0" xmlns="http://www.w3.org/2000/svg" xmlns:xlink="http://www.w3.org/1999/xlink" x="0px" y="0px"
	 viewBox="0 0 33.79 9.13" enable-background="new 0 0 33.79 9.13" xml:space="preserve">
<g id="Background_xA0_Image_1_">
</g>
<g id="맞춤_신입_박혜지">
</g>
<g id="언제나_성장하는_박혜지">
</g>
<g id="함께_성장하는_박혜지">
	<g>
		<path d="M4.15,1.4H6.1V0h0.85v6.58H6.1V4.01H4.15v1H0V0.48h4.15V1.4z M3.34,4.27V1.21H0.86v3.06H3.34z M7.15,8.95H1.33V6.23h0.86
			V8.2h4.96V8.95z M4.15,3.28h1.96V2.12H4.15V3.28z"/>
		<path d="M13.89,4.25l-0.52,0.63c-0.73-0.38-1.47-0.94-2.04-1.57C10.5,4.16,9.46,4.78,8.63,5.09L8.07,4.48
			c1.73-0.62,3.29-2,3.66-3.36c-0.68,0.03-1.4,0.03-2.11,0.03h-0.9V0.41h1.51c0.83,0,1.66,0,2.57-0.02
			c-0.09,0.87-0.46,1.66-0.99,2.35C12.33,3.36,13.19,3.92,13.89,4.25z M15.56,8.99H9.93V5.5h0.84v0.79h3.96V5.45h0.84V8.99z
			 M14.73,8.24V7h-3.96v1.24H14.73z M13.13,2.8V2.04h1.59V0h0.85v4.93h-0.85V2.8H13.13z"/>
		<path d="M17.69,1.54H17.1V0.81h1.1c0.69,0,1.37,0,2.15-0.02c-0.08,1.05-0.32,2.06-0.7,3c0.41,0.89,1.04,1.72,1.75,2.32l-0.67,0.58
			c-0.58-0.56-1.1-1.27-1.49-2.05c-0.5,0.91-1.14,1.73-1.94,2.4l-0.68-0.51c1.69-1.37,2.57-2.99,2.8-5.03
			C18.9,1.54,18.27,1.54,17.69,1.54z M21.69,0.1h0.82V8.9h-0.82V3.95h-1.2V3.22h1.2V0.1z M24.33,9.13h-0.85V0h0.85V9.13z"/>
		<path d="M27.8,0.39c1.35,0,2.36,0.99,2.36,2.33c0,1.3-1.01,2.29-2.36,2.29c-1.33,0-2.34-0.99-2.34-2.29
			C25.47,1.38,26.47,0.39,27.8,0.39z M27.82,4.25c0.86,0,1.46-0.64,1.46-1.53c0-0.93-0.6-1.58-1.46-1.58s-1.45,0.65-1.45,1.58
			C26.37,3.61,26.96,4.25,27.82,4.25z M32.56,8.95h-5.62V6.12h0.86V8.2h4.76V8.95z M33.79,3.34h-1.42V6.6h-0.85V0.01h0.85v2.57h1.42
			V3.34z"/>
	</g>
</g>
</svg>
