<?xml version="1.0" encoding="utf-8"?>
<!-- Generator: Adobe Illustrator 23.1.0, SVG Export Plug-In . SVG Version: 6.00 Build 0)  -->
<svg version="1.0" xmlns="http://www.w3.org/2000/svg" xmlns:xlink="http://www.w3.org/1999/xlink" x="0px" y="0px"
	 viewBox="0 0 35.07 9.13" enable-background="new 0 0 35.07 9.13" xml:space="preserve">
<g id="Background_xA0_Image_1_">
</g>
<g id="맞춤_신입_박혜지">
</g>
<g id="언제나_성장하는_박혜지">
</g>
<g id="함께_성장하는_박혜지">
	<g>
		<path d="M0,6.55V0.66h0.88v5.12h1.19c1.32,0,2.48-0.22,3.17-0.38v0.75c-0.75,0.2-2.12,0.4-3.29,0.4H0z M8.12,4.16H6.57v4.97H5.73
			V0h0.85v3.4h1.55V4.16z"/>
		<path d="M8.3,6.46h1.8c1.32,0,3.25-0.08,4.51-0.25v0.72c-1.26,0.18-3.11,0.28-4.5,0.28H8.3V6.46z M11.22,5.17
			c-1.43,0-2.33-1-2.33-2.31c0-1.31,0.9-2.31,2.33-2.31s2.33,1,2.33,2.31C13.54,4.17,12.65,5.17,11.22,5.17z M11.22,1.3
			c-0.89,0-1.45,0.61-1.45,1.56s0.56,1.56,1.45,1.56s1.45-0.61,1.45-1.56S12.1,1.3,11.22,1.3z M15.9,9.13h-0.82V0h0.82V9.13z"/>
		<path d="M27.19,7.81h-8.38V7.08h3.77V4.75h0.88v2.33h3.74V7.81z M26.72,4.57l-0.55,0.65c-1.25-0.44-2.39-1.42-3.1-2.62
			c-0.62,1.22-1.78,2.12-3.1,2.6l-0.56-0.66c1.99-0.7,3.28-1.91,3.23-4.11h0.88c0.02,0.46-0.02,0.89-0.13,1.3
			C24.13,3.1,25.26,4.1,26.72,4.57z"/>
		<path d="M28.52,1.52h-0.64V0.8h1.19c0.77,0,1.56,0,2.35-0.02c-0.08,2.69-1.15,4.89-3.36,6.37l-0.61-0.58
			c1.97-1.26,2.97-3.06,3.08-5.08C29.85,1.52,29.19,1.52,28.52,1.52z M35.07,9.13h-0.85V4.16h-1.13V8.9h-0.83V0.1h0.83v3.32h1.13V0
			h0.85V9.13z"/>
	</g>
</g>
</svg>
