<?xml version="1.0" encoding="utf-8"?>
<!-- Generator: Adobe Illustrator 23.1.0, SVG Export Plug-In . SVG Version: 6.00 Build 0)  -->
<svg version="1.0" xmlns="http://www.w3.org/2000/svg" xmlns:xlink="http://www.w3.org/1999/xlink" x="0px" y="0px"
	 viewBox="0 0 42.83 9.13" enable-background="new 0 0 42.83 9.13" xml:space="preserve">
<g id="Background_xA0_Image_1_">
</g>
<g id="맞춤_신입_박혜지">
</g>
<g id="언제나_성장하는_박혜지">
</g>
<g id="함께_성장하는_박혜지">
	<g>
		<path d="M1.13,1.52V0.79h6.14v0.73H6.23L6.04,4.46h1.38v0.73H4.6v1.89h3.78v0.73H0V7.08h3.72V5.19H0.98V4.46h1.39L2.19,1.52H1.13z
			 M5.38,1.52H3.03l0.15,2.94h2.04L5.38,1.52z"/>
		<path d="M16.99,7.09v0.73H8.61V7.09H16.99z M9.99,5.57V0.7h5.63v0.74h-4.78V2.7h4.62v0.7h-4.62v1.45h4.92v0.72H9.99z"/>
		<path d="M18.31,0.96V0.22h6.25v0.74H23.5L23.43,2.5h1.23v0.72h-2.82V4.1h3.86v0.71h-8.58V4.1h3.83V3.22H18.2V2.5h1.23l-0.06-1.54
			H18.31z M18.51,9.13V6.97h4.98V6.21h-4.98V5.5h5.82v2.15h-4.98v0.77h5.21v0.71H18.51z M22.65,0.96h-2.42l0.04,1.54h2.32
			L22.65,0.96z"/>
		<path d="M27.24,6.23h1.37c1.37,0,2.56-0.22,3.28-0.37v0.71c-0.78,0.2-2.19,0.39-3.4,0.39h-2.12V3.34h3.07V1.47h-3.08V0.73h3.95
			v3.34h-3.07V6.23z M32.49,0h0.85v9.13h-0.85V0z"/>
		<path d="M38.2,7.04V5.22c-1.57-0.15-2.54-1.12-2.54-2.39c0-1.39,1.16-2.41,2.99-2.41c1.82,0,2.99,1.02,2.99,2.41
			c0,1.27-0.98,2.24-2.54,2.39v1.82h3.75v0.73h-8.38V7.04H38.2z M38.65,1.17c-1.42,0-2.12,0.76-2.12,1.66c0,0.9,0.7,1.68,2.12,1.68
			s2.12-0.78,2.12-1.68C40.76,1.93,40.06,1.17,38.65,1.17z"/>
	</g>
</g>
</svg>
