<?xml version="1.0" encoding="utf-8"?>
<!-- Generator: Adobe Illustrator 23.1.0, SVG Export Plug-In . SVG Version: 6.00 Build 0)  -->
<svg version="1.0" xmlns="http://www.w3.org/2000/svg" xmlns:xlink="http://www.w3.org/1999/xlink" x="0px" y="0px"
	 viewBox="0 0 33.01 10.25" enable-background="new 0 0 33.01 10.25" xml:space="preserve">
<g id="Background_xA0_Image_1_">
</g>
<g id="맞춤_신입_박혜지">
</g>
<g id="언제나_성장하는_박혜지">
</g>
<g id="함께_성장하는_박혜지">
	<g>
		<path d="M2.35,6.87c0.02-0.02,0.04-0.05,0.04-0.09c0-0.04,0.01-0.1,0.01-0.16c0-0.06,0-0.14,0.01-0.22s0.02-0.17,0.05-0.27
			c0.1-0.31,0.26-0.47,0.49-0.47c0.29,0,0.48,0.15,0.59,0.46C3.56,6.19,3.58,6.28,3.6,6.39c0.02,0.11,0.03,0.2,0.03,0.27
			c0,0.05,0.01,0.09,0.02,0.11C3.66,6.8,3.68,6.82,3.72,6.84c0.04,0.02,0.09,0.03,0.17,0.04c0.08,0.01,0.19,0.01,0.34,0.01
			c0.12,0,0.24,0,0.36-0.01s0.24-0.02,0.36-0.02c0.07-0.01,0.14-0.02,0.22-0.02c0.07-0.01,0.14-0.02,0.22-0.02
			c0.3-0.01,0.55,0.1,0.73,0.34c0.06,0.08,0.11,0.17,0.13,0.28c0.02,0.1,0.03,0.2,0.01,0.3C6.24,7.82,6.2,7.91,6.14,7.99
			c-0.06,0.08-0.14,0.15-0.23,0.2C5.76,8.26,5.6,8.3,5.44,8.32c-0.5,0.09-0.99,0.14-1.48,0.15C3.48,8.49,2.99,8.47,2.49,8.42
			C2.31,8.4,2.11,8.37,1.91,8.33c-0.2-0.04-0.4-0.1-0.59-0.16C1.12,8.1,0.94,8.03,0.76,7.95C0.58,7.86,0.41,7.77,0.27,7.66
			C0.22,7.63,0.18,7.58,0.14,7.51S0.08,7.36,0.05,7.28C0.03,7.2,0.01,7.12,0.01,7.05S0,6.9,0.01,6.85c0.01-0.16,0.07-0.28,0.19-0.35
			C0.31,6.42,0.46,6.4,0.64,6.44c0.07,0.02,0.14,0.04,0.2,0.07C0.91,6.53,0.97,6.56,1.04,6.6c0.08,0.03,0.16,0.06,0.23,0.1
			c0.07,0.03,0.15,0.06,0.23,0.08c0.05,0.02,0.11,0.03,0.2,0.05c0.08,0.02,0.17,0.03,0.26,0.04C2.04,6.88,2.12,6.89,2.2,6.89
			S2.32,6.89,2.35,6.87z M2.07,6.02c-0.14-0.04-0.29-0.07-0.43-0.1c-0.14-0.03-0.28-0.06-0.42-0.1C0.94,5.74,0.7,5.57,0.51,5.31
			C0.44,5.21,0.45,5.1,0.53,5c0.11-0.14,0.23-0.22,0.35-0.26C1.01,4.7,1.15,4.69,1.31,4.72c0.14,0.02,0.21,0.03,0.23,0.01
			c0.02-0.02,0.01-0.09-0.02-0.21C1.5,4.37,1.48,4.22,1.49,4.06c0-0.15,0.01-0.3,0.03-0.46c0.02-0.13,0.02-0.21,0-0.26
			C1.5,3.31,1.44,3.27,1.33,3.24C1.21,3.21,1.11,3.16,1.01,3.09c-0.1-0.07-0.16-0.13-0.2-0.17s-0.07-0.1-0.09-0.17
			S0.71,2.61,0.75,2.54C0.81,2.42,0.9,2.34,1.02,2.3c0.12-0.04,0.27-0.05,0.45-0.04C1.8,2.3,2.12,2.33,2.44,2.35
			c0.32,0.02,0.63,0.02,0.95,0.01c0.07-0.01,0.14-0.01,0.22-0.02s0.14-0.01,0.22-0.03c0.11-0.02,0.22-0.02,0.32,0
			c0.1,0.02,0.19,0.06,0.28,0.1C4.5,2.44,4.59,2.48,4.67,2.54s0.13,0.14,0.13,0.25C4.81,3,4.79,3.15,4.73,3.24
			C4.67,3.32,4.55,3.4,4.37,3.46C4.31,3.49,4.26,3.51,4.22,3.52C4.19,3.54,4.16,3.56,4.15,3.58C4.14,3.61,4.14,3.64,4.14,3.67
			c0,0.04,0.01,0.09,0.02,0.16c0.02,0.13,0.02,0.26,0.02,0.38s-0.01,0.26-0.02,0.4C4.17,4.7,4.19,4.76,4.24,4.8s0.1,0.05,0.17,0.05
			s0.14,0.01,0.22,0.01s0.16,0.01,0.23,0.04c0.2,0.08,0.33,0.2,0.4,0.36c0.14,0.34,0.04,0.56-0.31,0.68
			C4.73,5.98,4.48,6.02,4.19,6.04C3.91,6.07,3.62,6.08,3.34,6.09c-0.28,0-0.54,0-0.77-0.01C2.34,6.06,2.17,6.04,2.07,6.02z
			 M2.35,4.11C2.35,4.2,2.36,4.28,2.36,4.36s0,0.16,0.01,0.25c0.02,0.14,0.07,0.22,0.16,0.25c0.09,0.03,0.2,0.06,0.33,0.08
			c0.11,0.02,0.2,0.02,0.28-0.01c0.07-0.03,0.11-0.1,0.11-0.22C3.23,4.56,3.21,4.39,3.2,4.22s-0.03-0.34-0.05-0.5
			C3.14,3.68,3.12,3.64,3.08,3.63S3.01,3.59,2.97,3.57C2.83,3.51,2.7,3.5,2.56,3.55C2.42,3.6,2.35,3.69,2.35,3.84V4.11z"/>
		<path d="M9.83,7.97C9.43,7.96,9.02,7.93,8.63,7.89c-0.4-0.04-0.79-0.12-1.18-0.24C6.98,7.5,6.66,7.23,6.49,6.85
			c-0.1-0.22-0.09-0.4,0.04-0.55S6.84,6.08,7.1,6.12c0.05,0.01,0.1,0.02,0.15,0.02C7.3,6.15,7.35,6.16,7.41,6.18
			c0.4,0.14,0.8,0.22,1.21,0.26c0.41,0.04,0.82,0.05,1.24,0.05c0.33-0.01,0.65-0.01,0.97,0c0.32,0.01,0.64-0.02,0.96-0.08
			c0.27-0.05,0.49,0,0.67,0.14c0.17,0.14,0.27,0.34,0.28,0.6c0.02,0.23-0.08,0.4-0.32,0.53c-0.29,0.15-0.59,0.25-0.9,0.28
			c-0.28,0.04-0.56,0.06-0.84,0.07C10.39,8.03,10.11,8.01,9.83,7.97z M7.67,4.01c0.01-0.1,0.01-0.25,0-0.44
			c-0.01-0.19,0-0.38,0.02-0.59c0.02-0.2,0.08-0.4,0.17-0.59C7.95,2.2,8.1,2.05,8.3,1.94C8.49,1.8,8.7,1.68,8.92,1.6
			c0.22-0.08,0.47-0.11,0.74-0.1c0.11,0,0.21,0,0.29,0.01s0.17,0.01,0.25,0.02s0.16,0.02,0.24,0.04c0.08,0.02,0.18,0.04,0.29,0.06
			c0.19,0.05,0.37,0.12,0.53,0.23c0.16,0.1,0.24,0.21,0.23,0.31c0,0.11-0.02,0.2-0.07,0.26c-0.05,0.06-0.16,0.12-0.34,0.16
			c-0.14,0.03-0.31,0.04-0.51,0.02c-0.2-0.02-0.37-0.02-0.51,0C10,2.63,9.93,2.63,9.86,2.63s-0.13,0-0.2,0.01
			C9.51,2.65,9.39,2.71,9.31,2.8C9.24,2.89,9.2,2.99,9.21,3.1c0.01,0.1,0.07,0.14,0.18,0.14c0.11,0,0.24,0,0.37,0
			c0.07,0,0.13,0,0.18,0s0.09,0,0.13,0s0.08,0,0.13,0s0.1,0,0.16,0.01c0.09,0.02,0.18,0.03,0.28,0.03c0.1,0,0.17,0.01,0.23,0.03
			c0.06,0.01,0.11,0.02,0.15,0.05c0.04,0.02,0.09,0.05,0.13,0.08c0.04,0.03,0.07,0.08,0.08,0.13c0.02,0.06,0.02,0.11,0.02,0.17
			c0,0.06-0.02,0.11-0.04,0.16c-0.02,0.05-0.06,0.08-0.1,0.1c-0.1,0.04-0.18,0.06-0.26,0.06s-0.2,0-0.35,0.01
			c-0.05,0-0.11,0-0.19,0.01c-0.08,0-0.16,0.01-0.25,0.01c-0.09,0-0.17,0-0.26,0s-0.15,0-0.2,0C9.4,4.12,9.27,4.14,9.23,4.19
			C9.19,4.23,9.17,4.28,9.17,4.31C9.18,4.4,9.19,4.46,9.2,4.47c0.01,0.02,0.03,0.04,0.07,0.08s0.09,0.07,0.14,0.08
			c0.05,0.01,0.11,0.03,0.17,0.05C9.7,4.72,9.83,4.74,9.97,4.76c0.05,0,0.08,0,0.1,0.01s0.04,0.01,0.05,0.01c0.01,0,0.03,0,0.04,0
			s0.05,0,0.1,0.01c0.1,0.02,0.21,0.03,0.32,0.04c0.11,0.01,0.22,0.03,0.31,0.06c0.1,0.03,0.17,0.07,0.23,0.12s0.09,0.12,0.09,0.2
			c0,0.05,0,0.1-0.01,0.15c-0.01,0.05-0.02,0.1-0.04,0.15c-0.02,0.11-0.11,0.21-0.26,0.29s-0.33,0.12-0.54,0.12
			c-0.3,0.02-0.6-0.02-0.89-0.1C9.18,5.74,8.91,5.64,8.66,5.53c-0.21-0.09-0.37-0.18-0.5-0.27s-0.22-0.2-0.29-0.31
			C7.79,4.83,7.74,4.7,7.72,4.55C7.69,4.4,7.67,4.22,7.67,4.01z"/>
		<path d="M15.26,4.2c0.04-0.03,0.05-0.12,0.04-0.25c-0.02-0.14,0.01-0.3,0.07-0.49c0.1-0.31,0.26-0.47,0.49-0.47
			c0.27,0,0.47,0.15,0.59,0.46c0.02,0.07,0.05,0.16,0.07,0.27c0.02,0.11,0.03,0.2,0.03,0.27c0,0.05,0.01,0.09,0.02,0.11
			c0.01,0.03,0.04,0.05,0.07,0.07c0.04,0.02,0.09,0.03,0.17,0.04S17,4.22,17.14,4.22c0.12,0,0.24,0,0.36-0.01s0.24-0.02,0.36-0.02
			c0.07-0.01,0.14-0.02,0.22-0.02c0.07-0.01,0.14-0.02,0.22-0.02c0.3-0.01,0.54,0.1,0.72,0.34c0.06,0.08,0.11,0.17,0.13,0.28
			c0.02,0.1,0.03,0.2,0.01,0.3s-0.05,0.19-0.11,0.27s-0.13,0.15-0.23,0.2c-0.15,0.06-0.31,0.11-0.48,0.13
			c-0.49,0.09-0.98,0.14-1.46,0.15c-0.49,0.01-0.98-0.01-1.49-0.05c-0.18-0.02-0.38-0.05-0.58-0.09c-0.2-0.04-0.4-0.1-0.59-0.16
			c-0.2-0.06-0.38-0.14-0.56-0.22c-0.18-0.08-0.34-0.18-0.49-0.28c-0.05-0.03-0.09-0.08-0.13-0.16s-0.06-0.15-0.08-0.23
			c-0.02-0.08-0.03-0.16-0.04-0.23c-0.01-0.08-0.01-0.14-0.01-0.2c0.02-0.16,0.08-0.28,0.2-0.35c0.12-0.08,0.27-0.09,0.45-0.05
			c0.06,0.02,0.13,0.04,0.2,0.07c0.07,0.03,0.13,0.06,0.2,0.09c0.07,0.03,0.14,0.06,0.22,0.1c0.07,0.03,0.15,0.06,0.24,0.08
			c0.05,0.02,0.11,0.03,0.2,0.05c0.08,0.02,0.17,0.03,0.26,0.04c0.09,0.01,0.17,0.02,0.25,0.02C15.18,4.22,15.23,4.21,15.26,4.2z
			 M15.79,6.08c0.14,0.02,0.3,0.03,0.48,0.04s0.38,0.03,0.58,0.06C17,6.2,17.15,6.25,17.29,6.32c0.14,0.07,0.25,0.18,0.34,0.34
			c0.04,0.07,0.07,0.14,0.1,0.21c0.03,0.07,0.04,0.14,0.04,0.22c0.03,0.35-0.04,0.7-0.22,1.04c-0.06,0.11-0.14,0.2-0.23,0.28
			c-0.09,0.07-0.21,0.12-0.34,0.16c-0.3,0.06-0.59,0.11-0.89,0.14c-0.3,0.03-0.6,0.03-0.91-0.01C15.09,8.68,15,8.67,14.91,8.65
			c-0.09-0.01-0.18,0-0.26,0.04c-0.02,0.01-0.05,0.04-0.08,0.08c-0.03,0.04-0.02,0.08,0.04,0.11c0.13,0.1,0.26,0.16,0.4,0.17
			c0.14,0.01,0.29,0.01,0.44,0.01c0.18-0.01,0.37-0.01,0.56-0.01s0.38-0.01,0.58-0.02c0.12-0.01,0.21,0.02,0.28,0.08
			c0.07,0.06,0.13,0.14,0.17,0.25c0.04,0.1,0.04,0.18,0.01,0.26c-0.03,0.08-0.08,0.15-0.14,0.22c-0.1,0.14-0.23,0.22-0.37,0.26
			c-0.43,0.13-0.85,0.18-1.27,0.14c-0.41-0.03-0.81-0.18-1.19-0.44c-0.2-0.14-0.35-0.3-0.45-0.48c-0.1-0.18-0.13-0.4-0.09-0.66
			c0.02-0.17,0.1-0.3,0.23-0.4c0.14-0.09,0.27-0.16,0.41-0.23c0.14-0.06,0.29-0.1,0.45-0.12l1.01-0.04c0.1,0,0.21-0.01,0.31-0.02
			c0.1-0.01,0.2-0.04,0.29-0.08c0.08-0.03,0.13-0.1,0.14-0.2c0-0.1-0.05-0.16-0.16-0.18c-0.19-0.02-0.38-0.05-0.57-0.07
			s-0.38-0.04-0.57-0.05c-0.15-0.02-0.3-0.05-0.43-0.09c-0.14-0.04-0.26-0.12-0.37-0.22c-0.08-0.07-0.14-0.16-0.18-0.28
			c-0.03-0.11-0.03-0.21,0.01-0.31s0.11-0.16,0.2-0.2c0.09-0.04,0.17-0.07,0.26-0.08c0.08-0.02,0.17-0.02,0.27-0.02H15.79z
			 M15.29,3.46c-0.14-0.04-0.27-0.07-0.4-0.1c-0.13-0.02-0.26-0.06-0.4-0.1c-0.26-0.07-0.47-0.23-0.65-0.47
			c-0.06-0.08-0.06-0.18,0.02-0.29c0.1-0.12,0.2-0.2,0.32-0.23c0.12-0.04,0.25-0.04,0.39-0.01c0.12,0.02,0.19,0.01,0.22-0.01
			c0.02-0.02,0.02-0.09-0.01-0.2c-0.03-0.14-0.05-0.27-0.04-0.41c0-0.14,0.01-0.28,0.03-0.41c0.02-0.12,0.02-0.2,0.01-0.24
			c-0.01-0.04-0.07-0.08-0.17-0.11c-0.1-0.02-0.2-0.07-0.29-0.13c-0.09-0.06-0.15-0.12-0.19-0.16c-0.04-0.04-0.07-0.09-0.08-0.16
			c-0.02-0.06-0.01-0.13,0.02-0.19c0.06-0.11,0.14-0.19,0.25-0.22s0.25-0.05,0.43-0.03c0.3,0.03,0.59,0.06,0.88,0.08
			c0.29,0.02,0.59,0.02,0.88,0.01c0.06-0.01,0.13-0.01,0.19-0.02s0.13-0.01,0.19-0.03c0.1-0.02,0.2-0.01,0.29,0.01
			c0.09,0.02,0.18,0.05,0.26,0.09c0.08,0.03,0.16,0.07,0.24,0.12S17.8,0.39,17.8,0.5c0.01,0.18-0.02,0.32-0.07,0.4
			c-0.06,0.08-0.16,0.15-0.32,0.22c-0.12,0.04-0.19,0.07-0.2,0.1s-0.02,0.11,0,0.23c0.02,0.12,0.03,0.24,0.03,0.36
			c0,0.12,0,0.24-0.02,0.36c0.01,0.08,0.03,0.13,0.07,0.16s0.09,0.04,0.15,0.05s0.13,0.01,0.2,0.01c0.07,0,0.14,0.01,0.2,0.04
			c0.09,0.03,0.16,0.07,0.23,0.13s0.11,0.12,0.14,0.21c0.14,0.3,0.04,0.51-0.29,0.62c-0.19,0.04-0.42,0.07-0.68,0.1
			c-0.26,0.02-0.52,0.04-0.78,0.05c-0.26,0.01-0.5,0.01-0.71-0.01C15.54,3.51,15.39,3.49,15.29,3.46z M15.55,1.7
			c0,0.09,0,0.17,0.01,0.24c0,0.07,0.01,0.15,0.02,0.23c0.01,0.12,0.06,0.2,0.14,0.23c0.09,0.03,0.19,0.06,0.3,0.08
			c0.1,0.02,0.19,0.01,0.26-0.01c0.07-0.02,0.1-0.09,0.09-0.19c-0.01-0.16-0.02-0.32-0.04-0.47c-0.02-0.15-0.03-0.31-0.05-0.47
			c0-0.03-0.02-0.06-0.05-0.08c-0.04-0.02-0.07-0.04-0.11-0.05c-0.12-0.06-0.24-0.06-0.37-0.02s-0.19,0.13-0.19,0.26V1.7z"/>
		<path d="M21.08,3.86c0.2,0,0.37,0,0.51-0.01c0.14-0.01,0.27,0,0.4,0.01c0.44,0.03,0.71,0.27,0.8,0.72
			c0.08,0.38,0.08,0.76,0.01,1.16c-0.06,0.3-0.17,0.54-0.33,0.7c-0.16,0.16-0.4,0.25-0.7,0.26c-0.18,0.01-0.37,0.02-0.55,0.04
			c-0.18,0.02-0.37,0.01-0.55-0.04c-0.06-0.02-0.13-0.02-0.19,0c-0.1,0.02-0.14,0.09-0.12,0.2c0.02,0.1,0.09,0.19,0.19,0.25
			c0.17,0.11,0.35,0.17,0.55,0.18c0.1,0.02,0.19,0.02,0.29,0.02c0.1,0,0.19,0.01,0.29,0.02c0.15,0.02,0.26,0.08,0.31,0.2
			s0.05,0.24-0.01,0.38c-0.05,0.09-0.11,0.15-0.17,0.2s-0.14,0.08-0.22,0.11c-0.15,0.06-0.31,0.1-0.47,0.11
			c-0.16,0.01-0.33-0.01-0.49-0.04s-0.32-0.09-0.46-0.17s-0.27-0.18-0.37-0.3c-0.26-0.31-0.42-0.68-0.46-1.12
			c-0.02-0.3,0.1-0.54,0.36-0.72c0.19-0.14,0.41-0.23,0.66-0.25c0.16-0.02,0.32-0.04,0.48-0.06c0.16-0.02,0.32-0.05,0.48-0.07
			c0.08-0.02,0.16-0.04,0.23-0.07c0.07-0.03,0.13-0.07,0.17-0.14c0.04-0.08,0.06-0.16,0.06-0.25c-0.02-0.09-0.08-0.14-0.18-0.16
			c-0.11,0-0.22,0-0.33,0c-0.11,0-0.22,0-0.33-0.01c-0.22,0-0.43-0.01-0.65-0.04C20,4.96,19.83,4.79,19.75,4.5
			c-0.04-0.15-0.03-0.28,0.03-0.38c0.06-0.1,0.17-0.16,0.33-0.17c0.18-0.03,0.36-0.05,0.54-0.06C20.82,3.88,20.97,3.87,21.08,3.86z
			 M24.88,4.47c-0.01-0.16-0.03-0.31-0.08-0.46c-0.04-0.15-0.17-0.28-0.38-0.39c-0.1-0.04-0.16-0.1-0.2-0.18
			c-0.04-0.08-0.07-0.16-0.09-0.24c-0.04-0.11-0.01-0.21,0.08-0.31c0.1-0.09,0.22-0.14,0.38-0.14c0.19-0.01,0.37,0.01,0.54,0.05
			s0.33,0.11,0.48,0.22c0.31,0.21,0.55,0.44,0.71,0.69c0.16,0.25,0.26,0.53,0.31,0.82c0.12,0.78,0.14,1.55,0.07,2.33
			c-0.02,0.19-0.03,0.39-0.04,0.59c-0.01,0.2-0.06,0.4-0.14,0.59c-0.08,0.21-0.26,0.34-0.54,0.4c-0.12,0.02-0.24,0.03-0.36,0.01
			c-0.12-0.02-0.23-0.05-0.34-0.1s-0.19-0.11-0.26-0.18c-0.07-0.07-0.12-0.15-0.14-0.24c-0.02-0.06-0.02-0.13-0.02-0.2
			c0-0.07,0.01-0.14,0.01-0.22c-0.01-0.25-0.01-0.5-0.01-0.74c0-0.25,0.01-0.5,0.01-0.74V5.44V4.47z"/>
		<path d="M29.02,6.91c0.06-0.09,0.08-0.16,0.07-0.22c-0.01-0.06-0.03-0.11-0.04-0.17C29.01,6.31,29,6.1,29.01,5.89
			c0.01-0.21,0.04-0.42,0.11-0.63c0.05-0.16,0.11-0.28,0.2-0.37s0.18-0.13,0.29-0.13c0.3,0,0.5,0.17,0.6,0.5
			c0.05,0.14,0.07,0.3,0.07,0.46c0.01,0.1,0.01,0.19,0,0.29c-0.01,0.1-0.01,0.2-0.01,0.31c0,0.14,0.01,0.25,0.02,0.33
			s0.05,0.15,0.1,0.19c0.05,0.04,0.12,0.07,0.2,0.08c0.09,0.01,0.2,0.02,0.35,0.02c0.13,0,0.25,0,0.37-0.01s0.24-0.02,0.36-0.02
			c0.07-0.01,0.15-0.02,0.22-0.02c0.08-0.01,0.15-0.02,0.22-0.02c0.16-0.02,0.3,0.01,0.42,0.08c0.12,0.07,0.22,0.16,0.31,0.28
			c0.27,0.35,0.21,0.62-0.19,0.82c-0.08,0.04-0.16,0.07-0.24,0.1c-0.08,0.02-0.16,0.04-0.25,0.06c-0.5,0.09-1,0.14-1.5,0.15
			c-0.5,0.01-1-0.01-1.5-0.05c-0.38-0.04-0.73-0.13-1.06-0.27c-0.33-0.14-0.64-0.32-0.92-0.53c-0.2-0.17-0.29-0.36-0.26-0.59
			c0.02-0.17,0.08-0.29,0.2-0.38c0.12-0.08,0.27-0.1,0.45-0.05c0.07,0.02,0.14,0.04,0.21,0.07c0.07,0.03,0.13,0.06,0.2,0.09
			c0.08,0.03,0.16,0.07,0.23,0.1c0.07,0.04,0.15,0.07,0.23,0.09c0.1,0.03,0.19,0.05,0.29,0.07C28.82,6.88,28.92,6.89,29.02,6.91z
			 M31,3.99c0,0.33-0.05,0.62-0.16,0.86c-0.1,0.25-0.29,0.46-0.56,0.62c-0.45,0.28-0.88,0.27-1.31-0.02
			c-0.25-0.18-0.44-0.4-0.59-0.65c-0.14-0.25-0.21-0.53-0.19-0.85c0.01-0.24,0.06-0.46,0.17-0.67s0.24-0.4,0.4-0.58
			c0.04-0.04,0.08-0.07,0.11-0.1c0.04-0.02,0.07-0.06,0.1-0.1c0.19-0.2,0.39-0.32,0.59-0.36c0.2-0.04,0.39-0.02,0.56,0.05
			c0.17,0.07,0.33,0.19,0.46,0.35c0.14,0.16,0.23,0.34,0.29,0.54c0.05,0.16,0.08,0.32,0.1,0.47C30.99,3.71,31,3.85,31,3.99z
			 M30.03,2.95c-0.25,0.18-0.42,0.38-0.52,0.61c-0.1,0.23-0.14,0.49-0.13,0.77c0.01,0.06,0.05,0.1,0.11,0.13
			c0.07,0.03,0.13,0.04,0.17,0.02c0.21-0.08,0.36-0.23,0.44-0.46c0.07-0.18,0.1-0.36,0.1-0.54C30.2,3.31,30.14,3.13,30.03,2.95z"/>
	</g>
</g>
</svg>
